<svg width="1653" height="993" xmlns="http://www.w3.org/2000/svg" xmlns:xlink="http://www.w3.org/1999/xlink" overflow="hidden"><defs><clipPath id="clip0"><rect x="397" y="60" width="1653" height="993"/></clipPath><clipPath id="clip1"><rect x="397" y="60" width="1650" height="990"/></clipPath><clipPath id="clip2"><rect x="397" y="60" width="1650" height="990"/></clipPath><clipPath id="clip3"><rect x="570" y="230" width="1430" height="542"/></clipPath><clipPath id="clip4"><rect x="397" y="60" width="1650" height="990"/></clipPath><clipPath id="clip5"><rect x="570" y="230" width="1430" height="542"/></clipPath><clipPath id="clip6"><rect x="397" y="60" width="1650" height="990"/></clipPath><clipPath id="clip7"><rect x="570" y="230" width="1430" height="542"/></clipPath><clipPath id="clip8"><rect x="397" y="60" width="1650" height="990"/></clipPath><clipPath id="clip9"><rect x="570" y="230" width="1430" height="542"/></clipPath><clipPath id="clip10"><rect x="397" y="60" width="1650" height="990"/></clipPath><clipPath id="clip11"><rect x="570" y="230" width="1430" height="542"/></clipPath><clipPath id="clip12"><rect x="397" y="60" width="1650" height="990"/></clipPath><clipPath id="clip13"><rect x="570" y="230" width="1430" height="542"/></clipPath><clipPath id="clip14"><rect x="397" y="60" width="1650" height="990"/></clipPath><clipPath id="clip15"><rect x="570" y="230" width="1430" height="542"/></clipPath><clipPath id="clip16"><rect x="397" y="60" width="1650" height="990"/></clipPath><clipPath id="clip17"><rect x="397" y="60" width="1650" height="990"/></clipPath><clipPath id="clip18"><rect x="397" y="60" width="1650" height="990"/></clipPath><clipPath id="clip19"><rect x="397" y="60" width="1650" height="990"/></clipPath><clipPath id="clip20"><rect x="397" y="60" width="1650" height="990"/></clipPath><clipPath id="clip21"><rect x="397" y="60" width="1650" height="990"/></clipPath><clipPath id="clip22"><rect x="397" y="60" width="1650" height="990"/></clipPath><clipPath id="clip23"><rect x="397" y="60" width="1650" height="990"/></clipPath><clipPath id="clip24"><rect x="397" y="60" width="1650" height="990"/></clipPath><clipPath id="clip25"><rect x="397" y="60" width="1650" height="990"/></clipPath><clipPath id="clip26"><rect x="397" y="60" width="1650" height="990"/></clipPath><clipPath id="clip27"><rect x="397" y="60" width="1650" height="990"/></clipPath><clipPath id="clip28"><rect x="397" y="60" width="1650" height="990"/></clipPath><clipPath id="clip29"><rect x="397" y="60" width="1650" height="990"/></clipPath><clipPath id="clip30"><rect x="397" y="60" width="1650" height="990"/></clipPath><clipPath id="clip31"><rect x="397" y="60" width="1650" height="990"/></clipPath><clipPath id="clip32"><rect x="397" y="60" width="1650" height="990"/></clipPath><clipPath id="clip33"><rect x="397" y="60" width="1650" height="990"/></clipPath><clipPath id="clip34"><rect x="397" y="60" width="1650" height="990"/></clipPath><clipPath id="clip35"><rect x="397" y="60" width="1650" height="990"/></clipPath><clipPath id="clip36"><rect x="397" y="60" width="1650" height="990"/></clipPath><clipPath id="clip37"><rect x="397" y="60" width="1650" height="990"/></clipPath><clipPath id="clip38"><rect x="397" y="60" width="1650" height="990"/></clipPath><clipPath id="clip39"><rect x="397" y="60" width="1650" height="990"/></clipPath><clipPath id="clip40"><rect x="397" y="60" width="1650" height="990"/></clipPath><clipPath id="clip41"><rect x="397" y="60" width="1650" height="990"/></clipPath><clipPath id="clip42"><rect x="397" y="60" width="1650" height="990"/></clipPath><clipPath id="clip43"><rect x="397" y="60" width="1650" height="990"/></clipPath><clipPath id="clip44"><rect x="397" y="60" width="1650" height="990"/></clipPath><clipPath id="clip45"><rect x="397" y="60" width="1650" height="990"/></clipPath><clipPath id="clip46"><rect x="397" y="60" width="1650" height="990"/></clipPath><clipPath id="clip47"><rect x="397" y="60" width="1650" height="990"/></clipPath><clipPath id="clip48"><rect x="397" y="60" width="1650" height="990"/></clipPath><clipPath id="clip49"><rect x="397" y="60" width="1650" height="990"/></clipPath><clipPath id="clip50"><rect x="397" y="60" width="1650" height="990"/></clipPath><clipPath id="clip51"><rect x="397" y="60" width="1650" height="990"/></clipPath><clipPath id="clip52"><rect x="397" y="60" width="1650" height="990"/></clipPath><clipPath id="clip53"><rect x="397" y="60" width="1650" height="990"/></clipPath><clipPath id="clip54"><rect x="397" y="60" width="1650" height="990"/></clipPath><clipPath id="clip55"><rect x="397" y="60" width="1650" height="990"/></clipPath><clipPath id="clip56"><rect x="397" y="60" width="1650" height="990"/></clipPath><clipPath id="clip57"><rect x="397" y="60" width="1650" height="990"/></clipPath><clipPath id="clip58"><rect x="397" y="60" width="1650" height="990"/></clipPath><clipPath id="clip59"><rect x="397" y="60" width="1650" height="990"/></clipPath><clipPath id="clip60"><rect x="397" y="60" width="1650" height="990"/></clipPath><clipPath id="clip61"><rect x="397" y="60" width="1650" height="990"/></clipPath></defs><g clip-path="url(#clip0)" transform="translate(-397 -60)"><rect x="398" y="60.9998" width="1650" height="990" fill="#FFFFFF"/><g clip-path="url(#clip1)"><path d="M570.5 701.523 1997.5 701.523M570.5 634.521 1997.5 634.521M570.5 567.519 1997.5 567.519M570.5 499.517 1997.5 499.517M570.5 432.514 1997.5 432.514M570.5 365.512 1997.5 365.512M570.5 298.51 1997.5 298.51M570.5 230.5 1997.5 230.5" stroke="#D9D9D9" stroke-width="3.4375" stroke-linejoin="round" stroke-miterlimit="10" fill="none"/></g><g clip-path="url(#clip2)"><path d="M570.5 769.5 1997.5 769.501" stroke="#D9D9D9" stroke-width="3.4375" stroke-linejoin="round" stroke-miterlimit="10" fill="none" fill-rule="evenodd"/></g><g clip-path="url(#clip3)"><path d="M630 752.025 749.025 751.025 867.028 755.025 986.032 746.024 1105.04 745.024 1224.04 750.025 1343.04 749.025 1462.05 744 1581.05 745.024 1700.06 756 1819.06 753.025 1938 750.025" stroke="#4472C4" stroke-width="10.3125" stroke-linecap="round" stroke-linejoin="round" stroke-miterlimit="10" fill="none"/></g><g clip-path="url(#clip4)"><path d="M640.103 752.229C640.103 758.304 635.179 763.228 629.104 763.228 623.029 763.228 618.104 758.304 618.104 752.229 618.104 746.154 623.029 741.229 629.104 741.229 635.179 741.229 640.103 746.154 640.103 752.229Z" stroke="#4472C4" stroke-width="3.4375" stroke-linejoin="round" stroke-miterlimit="10" fill="#4472C4"/><path d="M759.104 751.229C759.104 757.303 754.179 762.228 748.104 762.228 742.029 762.228 737.104 757.303 737.104 751.229 737.104 745.154 742.029 740.229 748.104 740.229 754.179 740.229 759.104 745.154 759.104 751.229Z" stroke="#4472C4" stroke-width="3.4375" stroke-linejoin="round" stroke-miterlimit="10" fill="#4472C4"/><path d="M878.104 754.229C878.104 760.304 873.179 765.228 867.104 765.228 861.029 765.228 856.104 760.304 856.104 754.229 856.104 748.154 861.029 743.229 867.104 743.229 873.179 743.229 878.104 748.154 878.104 754.229Z" stroke="#4472C4" stroke-width="3.4375" stroke-linejoin="round" stroke-miterlimit="10" fill="#4472C4"/><path d="M997.103 746.229C997.103 752.304 992.179 757.228 986.104 757.228 980.029 757.228 975.104 752.304 975.104 746.229 975.104 740.154 980.029 735.229 986.104 735.229 992.179 735.229 997.103 740.154 997.103 746.229Z" stroke="#4472C4" stroke-width="3.4375" stroke-linejoin="round" stroke-miterlimit="10" fill="#4472C4"/><path d="M1116.1 744.229C1116.1 750.304 1111.18 755.228 1105.1 755.228 1099.03 755.228 1094.1 750.304 1094.1 744.229 1094.1 738.154 1099.03 733.229 1105.1 733.229 1111.18 733.229 1116.1 738.154 1116.1 744.229Z" stroke="#4472C4" stroke-width="3.4375" stroke-linejoin="round" stroke-miterlimit="10" fill="#4472C4"/><path d="M1235.1 750.229C1235.1 756.303 1230.18 761.228 1224.1 761.228 1218.03 761.228 1213.1 756.303 1213.1 750.229 1213.1 744.154 1218.03 739.229 1224.1 739.229 1230.18 739.229 1235.1 744.154 1235.1 750.229Z" stroke="#4472C4" stroke-width="3.4375" stroke-linejoin="round" stroke-miterlimit="10" fill="#4472C4"/><path d="M1354.1 749.228C1354.1 755.303 1349.18 760.228 1343.1 760.228 1337.03 760.228 1332.1 755.303 1332.1 749.228 1332.1 743.154 1337.03 738.229 1343.1 738.229 1349.18 738.229 1354.1 743.154 1354.1 749.228Z" stroke="#4472C4" stroke-width="3.4375" stroke-linejoin="round" stroke-miterlimit="10" fill="#4472C4"/><path d="M1473.1 744.229C1473.1 750.304 1468.18 755.228 1462.1 755.228 1456.03 755.228 1451.1 750.304 1451.1 744.229 1451.1 738.154 1456.03 733.229 1462.1 733.229 1468.18 733.229 1473.1 738.154 1473.1 744.229Z" stroke="#4472C4" stroke-width="3.4375" stroke-linejoin="round" stroke-miterlimit="10" fill="#4472C4"/><path d="M1591.1 745.229C1591.1 751.304 1586.18 756.228 1580.1 756.228 1574.03 756.228 1569.1 751.304 1569.1 745.229 1569.1 739.154 1574.03 734.229 1580.1 734.229 1586.18 734.229 1591.1 739.154 1591.1 745.229Z" stroke="#4472C4" stroke-width="3.4375" stroke-linejoin="round" stroke-miterlimit="10" fill="#4472C4"/><path d="M1710.1 755.229C1710.1 761.304 1705.18 766.228 1699.1 766.228 1693.03 766.228 1688.1 761.304 1688.1 755.229 1688.1 749.154 1693.03 744.229 1699.1 744.229 1705.18 744.229 1710.1 749.154 1710.1 755.229Z" stroke="#4472C4" stroke-width="3.4375" stroke-linejoin="round" stroke-miterlimit="10" fill="#4472C4"/><path d="M1829.1 753.229C1829.1 759.304 1824.18 764.228 1818.1 764.228 1812.03 764.228 1807.1 759.304 1807.1 753.229 1807.1 747.154 1812.03 742.229 1818.1 742.229 1824.18 742.229 1829.1 747.154 1829.1 753.229Z" stroke="#4472C4" stroke-width="3.4375" stroke-linejoin="round" stroke-miterlimit="10" fill="#4472C4"/><path d="M1948.1 749.228C1948.1 755.303 1943.18 760.228 1937.1 760.228 1931.03 760.228 1926.1 755.303 1926.1 749.228 1926.1 743.154 1931.03 738.229 1937.1 738.229 1943.18 738.229 1948.1 743.154 1948.1 749.228Z" stroke="#4472C4" stroke-width="3.4375" stroke-linejoin="round" stroke-miterlimit="10" fill="#4472C4"/></g><g clip-path="url(#clip5)"><path d="M630 742.024 749.025 743.024 867.028 746 986.032 739.024 1105.04 733 1224.04 740.024 1343.04 741.024 1462.05 735.024 1581.05 733.024 1700.06 743.024 1819.06 739.024 1938 738.024" stroke="#ED7D31" stroke-width="10.3125" stroke-linecap="round" stroke-linejoin="round" stroke-miterlimit="10" fill="none"/></g><g clip-path="url(#clip6)"><path d="M640.103 742.229C640.103 748.304 635.179 753.228 629.104 753.228 623.029 753.228 618.104 748.304 618.104 742.229 618.104 736.154 623.029 731.229 629.104 731.229 635.179 731.229 640.103 736.154 640.103 742.229Z" stroke="#ED7D31" stroke-width="3.4375" stroke-linejoin="round" stroke-miterlimit="10" fill="#ED7D31"/><path d="M759.104 743.229C759.104 749.304 754.179 754.228 748.104 754.228 742.029 754.228 737.104 749.304 737.104 743.229 737.104 737.154 742.029 732.229 748.104 732.229 754.179 732.229 759.104 737.154 759.104 743.229Z" stroke="#ED7D31" stroke-width="3.4375" stroke-linejoin="round" stroke-miterlimit="10" fill="#ED7D31"/><path d="M878.104 745.229C878.104 751.304 873.179 756.228 867.104 756.228 861.029 756.228 856.104 751.304 856.104 745.229 856.104 739.154 861.029 734.229 867.104 734.229 873.179 734.229 878.104 739.154 878.104 745.229Z" stroke="#ED7D31" stroke-width="3.4375" stroke-linejoin="round" stroke-miterlimit="10" fill="#ED7D31"/><path d="M997.103 738.228C997.103 744.303 992.179 749.228 986.104 749.228 980.029 749.228 975.104 744.303 975.104 738.228 975.104 732.154 980.029 727.229 986.104 727.229 992.179 727.229 997.103 732.154 997.103 738.228Z" stroke="#ED7D31" stroke-width="3.4375" stroke-linejoin="round" stroke-miterlimit="10" fill="#ED7D31"/><path d="M1116.1 733.229C1116.1 739.304 1111.18 744.228 1105.1 744.228 1099.03 744.228 1094.1 739.304 1094.1 733.229 1094.1 727.154 1099.03 722.229 1105.1 722.229 1111.18 722.229 1116.1 727.154 1116.1 733.229Z" stroke="#ED7D31" stroke-width="3.4375" stroke-linejoin="round" stroke-miterlimit="10" fill="#ED7D31"/><path d="M1235.1 740.229C1235.1 746.303 1230.18 751.228 1224.1 751.228 1218.03 751.228 1213.1 746.303 1213.1 740.229 1213.1 734.154 1218.03 729.229 1224.1 729.229 1230.18 729.229 1235.1 734.154 1235.1 740.229Z" stroke="#ED7D31" stroke-width="3.4375" stroke-linejoin="round" stroke-miterlimit="10" fill="#ED7D31"/><path d="M1354.1 741.229C1354.1 747.304 1349.18 752.228 1343.1 752.228 1337.03 752.228 1332.1 747.304 1332.1 741.229 1332.1 735.154 1337.03 730.229 1343.1 730.229 1349.18 730.229 1354.1 735.154 1354.1 741.229Z" stroke="#ED7D31" stroke-width="3.4375" stroke-linejoin="round" stroke-miterlimit="10" fill="#ED7D31"/><path d="M1473.1 734.229C1473.1 740.304 1468.18 745.228 1462.1 745.228 1456.03 745.228 1451.1 740.304 1451.1 734.229 1451.1 728.154 1456.03 723.229 1462.1 723.229 1468.18 723.229 1473.1 728.154 1473.1 734.229Z" stroke="#ED7D31" stroke-width="3.4375" stroke-linejoin="round" stroke-miterlimit="10" fill="#ED7D31"/><path d="M1591.1 733.229C1591.1 739.304 1586.18 744.228 1580.1 744.228 1574.03 744.228 1569.1 739.304 1569.1 733.229 1569.1 727.154 1574.03 722.229 1580.1 722.229 1586.18 722.229 1591.1 727.154 1591.1 733.229Z" stroke="#ED7D31" stroke-width="3.4375" stroke-linejoin="round" stroke-miterlimit="10" fill="#ED7D31"/><path d="M1710.1 742.229C1710.1 748.304 1705.18 753.228 1699.1 753.228 1693.03 753.228 1688.1 748.304 1688.1 742.229 1688.1 736.154 1693.03 731.229 1699.1 731.229 1705.18 731.229 1710.1 736.154 1710.1 742.229Z" stroke="#ED7D31" stroke-width="3.4375" stroke-linejoin="round" stroke-miterlimit="10" fill="#ED7D31"/><path d="M1829.1 739.229C1829.1 745.303 1824.18 750.228 1818.1 750.228 1812.03 750.228 1807.1 745.303 1807.1 739.229 1807.1 733.154 1812.03 728.229 1818.1 728.229 1824.18 728.229 1829.1 733.154 1829.1 739.229Z" stroke="#ED7D31" stroke-width="3.4375" stroke-linejoin="round" stroke-miterlimit="10" fill="#ED7D31"/><path d="M1948.1 737.229C1948.1 743.304 1943.18 748.228 1937.1 748.228 1931.03 748.228 1926.1 743.304 1926.1 737.229 1926.1 731.154 1931.03 726.229 1937.1 726.229 1943.18 726.229 1948.1 731.154 1948.1 737.229Z" stroke="#ED7D31" stroke-width="3.4375" stroke-linejoin="round" stroke-miterlimit="10" fill="#ED7D31"/></g><g clip-path="url(#clip7)"><path d="M630 707.023 749.025 709.023 867.028 715 986.032 699.023 1105.04 702.023 1224.04 707.023 1343.04 709.023 1462.05 695.023 1581.05 692.023 1700.06 687 1819.06 690.023 1938 688.023" stroke="#A5A5A5" stroke-width="10.3125" stroke-linecap="round" stroke-linejoin="round" stroke-miterlimit="10" fill="none"/></g><g clip-path="url(#clip8)"><path d="M640.103 707.229C640.103 713.303 635.179 718.228 629.104 718.228 623.029 718.228 618.104 713.303 618.104 707.229 618.104 701.154 623.029 696.229 629.104 696.229 635.179 696.229 640.103 701.154 640.103 707.229Z" stroke="#A5A5A5" stroke-width="3.4375" stroke-linejoin="round" stroke-miterlimit="10" fill="#A5A5A5"/><path d="M759.104 708.229C759.104 714.304 754.179 719.228 748.104 719.228 742.029 719.228 737.104 714.304 737.104 708.229 737.104 702.154 742.029 697.229 748.104 697.229 754.179 697.229 759.104 702.154 759.104 708.229Z" stroke="#A5A5A5" stroke-width="3.4375" stroke-linejoin="round" stroke-miterlimit="10" fill="#A5A5A5"/><path d="M878.104 715.229C878.104 721.304 873.179 726.228 867.104 726.228 861.029 726.228 856.104 721.304 856.104 715.229 856.104 709.154 861.029 704.229 867.104 704.229 873.179 704.229 878.104 709.154 878.104 715.229Z" stroke="#A5A5A5" stroke-width="3.4375" stroke-linejoin="round" stroke-miterlimit="10" fill="#A5A5A5"/><path d="M997.103 699.229C997.103 705.304 992.179 710.228 986.104 710.228 980.029 710.228 975.104 705.304 975.104 699.229 975.104 693.154 980.029 688.229 986.104 688.229 992.179 688.229 997.103 693.154 997.103 699.229Z" stroke="#A5A5A5" stroke-width="3.4375" stroke-linejoin="round" stroke-miterlimit="10" fill="#A5A5A5"/><path d="M1116.1 702.229C1116.1 708.304 1111.18 713.228 1105.1 713.228 1099.03 713.228 1094.1 708.304 1094.1 702.229 1094.1 696.154 1099.03 691.229 1105.1 691.229 1111.18 691.229 1116.1 696.154 1116.1 702.229Z" stroke="#A5A5A5" stroke-width="3.4375" stroke-linejoin="round" stroke-miterlimit="10" fill="#A5A5A5"/><path d="M1235.1 707.229C1235.1 713.303 1230.18 718.228 1224.1 718.228 1218.03 718.228 1213.1 713.303 1213.1 707.229 1213.1 701.154 1218.03 696.229 1224.1 696.229 1230.18 696.229 1235.1 701.154 1235.1 707.229Z" stroke="#A5A5A5" stroke-width="3.4375" stroke-linejoin="round" stroke-miterlimit="10" fill="#A5A5A5"/><path d="M1354.1 709.229C1354.1 715.304 1349.18 720.228 1343.1 720.228 1337.03 720.228 1332.1 715.304 1332.1 709.229 1332.1 703.154 1337.03 698.229 1343.1 698.229 1349.18 698.229 1354.1 703.154 1354.1 709.229Z" stroke="#A5A5A5" stroke-width="3.4375" stroke-linejoin="round" stroke-miterlimit="10" fill="#A5A5A5"/><path d="M1473.1 695.229C1473.1 701.303 1468.18 706.228 1462.1 706.228 1456.03 706.228 1451.1 701.303 1451.1 695.229 1451.1 689.154 1456.03 684.229 1462.1 684.229 1468.18 684.229 1473.1 689.154 1473.1 695.229Z" stroke="#A5A5A5" stroke-width="3.4375" stroke-linejoin="round" stroke-miterlimit="10" fill="#A5A5A5"/><path d="M1591.1 692.229C1591.1 698.304 1586.18 703.228 1580.1 703.228 1574.03 703.228 1569.1 698.304 1569.1 692.229 1569.1 686.154 1574.03 681.229 1580.1 681.229 1586.18 681.229 1591.1 686.154 1591.1 692.229Z" stroke="#A5A5A5" stroke-width="3.4375" stroke-linejoin="round" stroke-miterlimit="10" fill="#A5A5A5"/><path d="M1710.1 687.229C1710.1 693.304 1705.18 698.228 1699.1 698.228 1693.03 698.228 1688.1 693.304 1688.1 687.229 1688.1 681.154 1693.03 676.229 1699.1 676.229 1705.18 676.229 1710.1 681.154 1710.1 687.229Z" stroke="#A5A5A5" stroke-width="3.4375" stroke-linejoin="round" stroke-miterlimit="10" fill="#A5A5A5"/><path d="M1829.1 690.229C1829.1 696.304 1824.18 701.228 1818.1 701.228 1812.03 701.228 1807.1 696.304 1807.1 690.229 1807.1 684.154 1812.03 679.229 1818.1 679.229 1824.18 679.229 1829.1 684.154 1829.1 690.229Z" stroke="#A5A5A5" stroke-width="3.4375" stroke-linejoin="round" stroke-miterlimit="10" fill="#A5A5A5"/><path d="M1948.1 687.229C1948.1 693.304 1943.18 698.228 1937.1 698.228 1931.03 698.228 1926.1 693.304 1926.1 687.229 1926.1 681.154 1931.03 676.229 1937.1 676.229 1943.18 676.229 1948.1 681.154 1948.1 687.229Z" stroke="#A5A5A5" stroke-width="3.4375" stroke-linejoin="round" stroke-miterlimit="10" fill="#A5A5A5"/></g><g clip-path="url(#clip9)"><path d="M630 645.021 749.025 668 867.028 651.021 986.032 639.021 1105.04 650.021 1224.04 657.022 1343.04 649.021 1462.05 628.021 1581.05 638.021 1700.06 618.02 1819.06 601.02 1938 591" stroke="#FFC000" stroke-width="10.3125" stroke-linecap="round" stroke-linejoin="round" stroke-miterlimit="10" fill="none"/></g><g clip-path="url(#clip10)"><path d="M640.103 645.229C640.103 651.304 635.179 656.228 629.104 656.228 623.029 656.228 618.104 651.304 618.104 645.229 618.104 639.154 623.029 634.229 629.104 634.229 635.179 634.229 640.103 639.154 640.103 645.229Z" stroke="#FFC000" stroke-width="3.4375" stroke-linejoin="round" stroke-miterlimit="10" fill="#FFC000"/><path d="M759.104 667.229C759.104 673.304 754.179 678.228 748.104 678.228 742.029 678.228 737.104 673.304 737.104 667.229 737.104 661.154 742.029 656.229 748.104 656.229 754.179 656.229 759.104 661.154 759.104 667.229Z" stroke="#FFC000" stroke-width="3.4375" stroke-linejoin="round" stroke-miterlimit="10" fill="#FFC000"/><path d="M878.104 650.228C878.104 656.303 873.179 661.228 867.104 661.228 861.029 661.228 856.104 656.303 856.104 650.228 856.104 644.154 861.029 639.229 867.104 639.229 873.179 639.229 878.104 644.154 878.104 650.228Z" stroke="#FFC000" stroke-width="3.4375" stroke-linejoin="round" stroke-miterlimit="10" fill="#FFC000"/><path d="M997.103 639.228C997.103 645.303 992.179 650.228 986.104 650.228 980.029 650.228 975.104 645.303 975.104 639.228 975.104 633.154 980.029 628.229 986.104 628.229 992.179 628.229 997.103 633.154 997.103 639.228Z" stroke="#FFC000" stroke-width="3.4375" stroke-linejoin="round" stroke-miterlimit="10" fill="#FFC000"/><path d="M1116.1 650.228C1116.1 656.303 1111.18 661.228 1105.1 661.228 1099.03 661.228 1094.1 656.303 1094.1 650.228 1094.1 644.154 1099.03 639.229 1105.1 639.229 1111.18 639.229 1116.1 644.154 1116.1 650.228Z" stroke="#FFC000" stroke-width="3.4375" stroke-linejoin="round" stroke-miterlimit="10" fill="#FFC000"/><path d="M1235.1 656.229C1235.1 662.304 1230.18 667.228 1224.1 667.228 1218.03 667.228 1213.1 662.304 1213.1 656.229 1213.1 650.154 1218.03 645.229 1224.1 645.229 1230.18 645.229 1235.1 650.154 1235.1 656.229Z" stroke="#FFC000" stroke-width="3.4375" stroke-linejoin="round" stroke-miterlimit="10" fill="#FFC000"/><path d="M1354.1 648.229C1354.1 654.304 1349.18 659.228 1343.1 659.228 1337.03 659.228 1332.1 654.304 1332.1 648.229 1332.1 642.154 1337.03 637.229 1343.1 637.229 1349.18 637.229 1354.1 642.154 1354.1 648.229Z" stroke="#FFC000" stroke-width="3.4375" stroke-linejoin="round" stroke-miterlimit="10" fill="#FFC000"/><path d="M1473.1 628.228C1473.1 634.303 1468.18 639.228 1462.1 639.228 1456.03 639.228 1451.1 634.303 1451.1 628.228 1451.1 622.154 1456.03 617.229 1462.1 617.229 1468.18 617.229 1473.1 622.154 1473.1 628.228Z" stroke="#FFC000" stroke-width="3.4375" stroke-linejoin="round" stroke-miterlimit="10" fill="#FFC000"/><path d="M1591.1 637.229C1591.1 643.304 1586.18 648.228 1580.1 648.228 1574.03 648.228 1569.1 643.304 1569.1 637.229 1569.1 631.154 1574.03 626.229 1580.1 626.229 1586.18 626.229 1591.1 631.154 1591.1 637.229Z" stroke="#FFC000" stroke-width="3.4375" stroke-linejoin="round" stroke-miterlimit="10" fill="#FFC000"/><path d="M1710.1 617.228C1710.1 623.303 1705.18 628.228 1699.1 628.228 1693.03 628.228 1688.1 623.303 1688.1 617.228 1688.1 611.154 1693.03 606.229 1699.1 606.229 1705.18 606.229 1710.1 611.154 1710.1 617.228Z" stroke="#FFC000" stroke-width="3.4375" stroke-linejoin="round" stroke-miterlimit="10" fill="#FFC000"/><path d="M1829.1 600.229C1829.1 606.304 1824.18 611.228 1818.1 611.228 1812.03 611.228 1807.1 606.304 1807.1 600.229 1807.1 594.154 1812.03 589.229 1818.1 589.229 1824.18 589.229 1829.1 594.154 1829.1 600.229Z" stroke="#FFC000" stroke-width="3.4375" stroke-linejoin="round" stroke-miterlimit="10" fill="#FFC000"/><path d="M1948.1 591.229C1948.1 597.304 1943.18 602.228 1937.1 602.228 1931.03 602.228 1926.1 597.304 1926.1 591.229 1926.1 585.154 1931.03 580.229 1937.1 580.229 1943.18 580.229 1948.1 585.154 1948.1 591.229Z" stroke="#FFC000" stroke-width="3.4375" stroke-linejoin="round" stroke-miterlimit="10" fill="#FFC000"/></g><g clip-path="url(#clip11)"><path d="M630 637.021 749.025 654 867.028 627.021 986.032 627.021 1105.04 640.021 1224.04 644.021 1343.04 637.021 1462.05 609.02 1581.05 624.021 1700.06 602.02 1819.06 584.019 1938 579" stroke="#5B9BD5" stroke-width="10.3125" stroke-linecap="round" stroke-linejoin="round" stroke-miterlimit="10" fill="none"/></g><g clip-path="url(#clip12)"><path d="M640.103 637.229C640.103 643.304 635.179 648.228 629.104 648.228 623.029 648.228 618.104 643.304 618.104 637.229 618.104 631.154 623.029 626.229 629.104 626.229 635.179 626.229 640.103 631.154 640.103 637.229Z" stroke="#5B9BD5" stroke-width="3.4375" stroke-linejoin="round" stroke-miterlimit="10" fill="#5B9BD5"/><path d="M759.104 653.229C759.104 659.304 754.179 664.228 748.104 664.228 742.029 664.228 737.104 659.304 737.104 653.229 737.104 647.154 742.029 642.229 748.104 642.229 754.179 642.229 759.104 647.154 759.104 653.229Z" stroke="#5B9BD5" stroke-width="3.4375" stroke-linejoin="round" stroke-miterlimit="10" fill="#5B9BD5"/><path d="M878.104 626.229C878.104 632.304 873.179 637.228 867.104 637.228 861.029 637.228 856.104 632.304 856.104 626.229 856.104 620.154 861.029 615.229 867.104 615.229 873.179 615.229 878.104 620.154 878.104 626.229Z" stroke="#5B9BD5" stroke-width="3.4375" stroke-linejoin="round" stroke-miterlimit="10" fill="#5B9BD5"/><path d="M997.103 626.229C997.103 632.304 992.179 637.228 986.104 637.228 980.029 637.228 975.104 632.304 975.104 626.229 975.104 620.154 980.029 615.229 986.104 615.229 992.179 615.229 997.103 620.154 997.103 626.229Z" stroke="#5B9BD5" stroke-width="3.4375" stroke-linejoin="round" stroke-miterlimit="10" fill="#5B9BD5"/><path d="M1116.1 639.228C1116.1 645.303 1111.18 650.228 1105.1 650.228 1099.03 650.228 1094.1 645.303 1094.1 639.228 1094.1 633.154 1099.03 628.229 1105.1 628.229 1111.18 628.229 1116.1 633.154 1116.1 639.228Z" stroke="#5B9BD5" stroke-width="3.4375" stroke-linejoin="round" stroke-miterlimit="10" fill="#5B9BD5"/><path d="M1235.1 644.229C1235.1 650.304 1230.18 655.228 1224.1 655.228 1218.03 655.228 1213.1 650.304 1213.1 644.229 1213.1 638.154 1218.03 633.229 1224.1 633.229 1230.18 633.229 1235.1 638.154 1235.1 644.229Z" stroke="#5B9BD5" stroke-width="3.4375" stroke-linejoin="round" stroke-miterlimit="10" fill="#5B9BD5"/><path d="M1354.1 636.229C1354.1 642.304 1349.18 647.228 1343.1 647.228 1337.03 647.228 1332.1 642.304 1332.1 636.229 1332.1 630.154 1337.03 625.229 1343.1 625.229 1349.18 625.229 1354.1 630.154 1354.1 636.229Z" stroke="#5B9BD5" stroke-width="3.4375" stroke-linejoin="round" stroke-miterlimit="10" fill="#5B9BD5"/><path d="M1473.1 609.229C1473.1 615.304 1468.18 620.228 1462.1 620.228 1456.03 620.228 1451.1 615.304 1451.1 609.229 1451.1 603.154 1456.03 598.229 1462.1 598.229 1468.18 598.229 1473.1 603.154 1473.1 609.229Z" stroke="#5B9BD5" stroke-width="3.4375" stroke-linejoin="round" stroke-miterlimit="10" fill="#5B9BD5"/><path d="M1591.1 623.229C1591.1 629.304 1586.18 634.228 1580.1 634.228 1574.03 634.228 1569.1 629.304 1569.1 623.229 1569.1 617.154 1574.03 612.229 1580.1 612.229 1586.18 612.229 1591.1 617.154 1591.1 623.229Z" stroke="#5B9BD5" stroke-width="3.4375" stroke-linejoin="round" stroke-miterlimit="10" fill="#5B9BD5"/><path d="M1710.1 602.229C1710.1 608.304 1705.18 613.228 1699.1 613.228 1693.03 613.228 1688.1 608.304 1688.1 602.229 1688.1 596.154 1693.03 591.229 1699.1 591.229 1705.18 591.229 1710.1 596.154 1710.1 602.229Z" stroke="#5B9BD5" stroke-width="3.4375" stroke-linejoin="round" stroke-miterlimit="10" fill="#5B9BD5"/><path d="M1829.1 584.228C1829.1 590.303 1824.18 595.228 1818.1 595.228 1812.03 595.228 1807.1 590.303 1807.1 584.228 1807.1 578.154 1812.03 573.229 1818.1 573.229 1824.18 573.229 1829.1 578.154 1829.1 584.228Z" stroke="#5B9BD5" stroke-width="3.4375" stroke-linejoin="round" stroke-miterlimit="10" fill="#5B9BD5"/><path d="M1948.1 578.229C1948.1 584.304 1943.18 589.228 1937.1 589.228 1931.03 589.228 1926.1 584.304 1926.1 578.229 1926.1 572.154 1931.03 567.229 1937.1 567.229 1943.18 567.229 1948.1 572.154 1948.1 578.229Z" stroke="#5B9BD5" stroke-width="3.4375" stroke-linejoin="round" stroke-miterlimit="10" fill="#5B9BD5"/></g><g clip-path="url(#clip13)"><path d="M630 627.021 749.025 646 867.028 618.02 986.032 619.02 1105.04 628.021 1224.04 634.021 1343.04 629.021 1462.05 600.02 1581.05 612.02 1700.06 590.019 1819.06 570.019 1938 567" stroke="#70AD47" stroke-width="10.3125" stroke-linecap="round" stroke-linejoin="round" stroke-miterlimit="10" fill="none"/></g><g clip-path="url(#clip14)"><path d="M640.103 627.229C640.103 633.304 635.179 638.228 629.104 638.228 623.029 638.228 618.104 633.304 618.104 627.229 618.104 621.154 623.029 616.229 629.104 616.229 635.179 616.229 640.103 621.154 640.103 627.229Z" stroke="#70AD47" stroke-width="3.4375" stroke-linejoin="round" stroke-miterlimit="10" fill="#70AD47"/><path d="M759.104 645.229C759.104 651.304 754.179 656.228 748.104 656.228 742.029 656.228 737.104 651.304 737.104 645.229 737.104 639.154 742.029 634.229 748.104 634.229 754.179 634.229 759.104 639.154 759.104 645.229Z" stroke="#70AD47" stroke-width="3.4375" stroke-linejoin="round" stroke-miterlimit="10" fill="#70AD47"/><path d="M878.104 617.228C878.104 623.303 873.179 628.228 867.104 628.228 861.029 628.228 856.104 623.303 856.104 617.228 856.104 611.154 861.029 606.229 867.104 606.229 873.179 606.229 878.104 611.154 878.104 617.228Z" stroke="#70AD47" stroke-width="3.4375" stroke-linejoin="round" stroke-miterlimit="10" fill="#70AD47"/><path d="M997.103 619.229C997.103 625.303 992.179 630.228 986.104 630.228 980.029 630.228 975.104 625.303 975.104 619.229 975.104 613.154 980.029 608.229 986.104 608.229 992.179 608.229 997.103 613.154 997.103 619.229Z" stroke="#70AD47" stroke-width="3.4375" stroke-linejoin="round" stroke-miterlimit="10" fill="#70AD47"/><path d="M1116.1 628.228C1116.1 634.303 1111.18 639.228 1105.1 639.228 1099.03 639.228 1094.1 634.303 1094.1 628.228 1094.1 622.154 1099.03 617.229 1105.1 617.229 1111.18 617.229 1116.1 622.154 1116.1 628.228Z" stroke="#70AD47" stroke-width="3.4375" stroke-linejoin="round" stroke-miterlimit="10" fill="#70AD47"/><path d="M1235.1 633.229C1235.1 639.304 1230.18 644.228 1224.1 644.228 1218.03 644.228 1213.1 639.304 1213.1 633.229 1213.1 627.154 1218.03 622.229 1224.1 622.229 1230.18 622.229 1235.1 627.154 1235.1 633.229Z" stroke="#70AD47" stroke-width="3.4375" stroke-linejoin="round" stroke-miterlimit="10" fill="#70AD47"/><path d="M1354.1 629.229C1354.1 635.303 1349.18 640.228 1343.1 640.228 1337.03 640.228 1332.1 635.303 1332.1 629.229 1332.1 623.154 1337.03 618.229 1343.1 618.229 1349.18 618.229 1354.1 623.154 1354.1 629.229Z" stroke="#70AD47" stroke-width="3.4375" stroke-linejoin="round" stroke-miterlimit="10" fill="#70AD47"/><path d="M1473.1 599.229C1473.1 605.304 1468.18 610.228 1462.1 610.228 1456.03 610.228 1451.1 605.304 1451.1 599.229 1451.1 593.154 1456.03 588.229 1462.1 588.229 1468.18 588.229 1473.1 593.154 1473.1 599.229Z" stroke="#70AD47" stroke-width="3.4375" stroke-linejoin="round" stroke-miterlimit="10" fill="#70AD47"/><path d="M1591.1 611.229C1591.1 617.304 1586.18 622.228 1580.1 622.228 1574.03 622.228 1569.1 617.304 1569.1 611.229 1569.1 605.154 1574.03 600.229 1580.1 600.229 1586.18 600.229 1591.1 605.154 1591.1 611.229Z" stroke="#70AD47" stroke-width="3.4375" stroke-linejoin="round" stroke-miterlimit="10" fill="#70AD47"/><path d="M1710.1 589.229C1710.1 595.304 1705.18 600.228 1699.1 600.228 1693.03 600.228 1688.1 595.304 1688.1 589.229 1688.1 583.154 1693.03 578.229 1699.1 578.229 1705.18 578.229 1710.1 583.154 1710.1 589.229Z" stroke="#70AD47" stroke-width="3.4375" stroke-linejoin="round" stroke-miterlimit="10" fill="#70AD47"/><path d="M1829.1 570.229C1829.1 576.304 1824.18 581.228 1818.1 581.228 1812.03 581.228 1807.1 576.304 1807.1 570.229 1807.1 564.154 1812.03 559.229 1818.1 559.229 1824.18 559.229 1829.1 564.154 1829.1 570.229Z" stroke="#70AD47" stroke-width="3.4375" stroke-linejoin="round" stroke-miterlimit="10" fill="#70AD47"/><path d="M1948.1 567.229C1948.1 573.304 1943.18 578.228 1937.1 578.228 1931.03 578.228 1926.1 573.304 1926.1 567.229 1926.1 561.154 1931.03 556.229 1937.1 556.229 1943.18 556.229 1948.1 561.154 1948.1 567.229Z" stroke="#70AD47" stroke-width="3.4375" stroke-linejoin="round" stroke-miterlimit="10" fill="#70AD47"/></g><g clip-path="url(#clip15)"><path d="M630 485.016 749.025 522 867.028 467.015 986.032 469.015 1105.04 487.016 1224.04 498.016 1343.04 431.014 1462.05 356.012 1581.05 454.015 1700.06 410.013 1819.06 293 1938 365.012" stroke="#264478" stroke-width="10.3125" stroke-linecap="round" stroke-linejoin="round" stroke-miterlimit="10" fill="none"/></g><g clip-path="url(#clip16)"><path d="M640.103 485.228C640.103 491.303 635.179 496.228 629.104 496.228 623.029 496.228 618.104 491.303 618.104 485.228 618.104 479.154 623.029 474.229 629.104 474.229 635.179 474.229 640.103 479.154 640.103 485.228Z" stroke="#264478" stroke-width="3.4375" stroke-linejoin="round" stroke-miterlimit="10" fill="#264478"/><path d="M759.104 522.229C759.104 528.304 754.179 533.228 748.104 533.228 742.029 533.228 737.104 528.304 737.104 522.229 737.104 516.154 742.029 511.229 748.104 511.229 754.179 511.229 759.104 516.154 759.104 522.229Z" stroke="#264478" stroke-width="3.4375" stroke-linejoin="round" stroke-miterlimit="10" fill="#264478"/><path d="M878.104 466.229C878.104 472.303 873.179 477.228 867.104 477.228 861.029 477.228 856.104 472.303 856.104 466.229 856.104 460.154 861.029 455.229 867.104 455.229 873.179 455.229 878.104 460.154 878.104 466.229Z" stroke="#264478" stroke-width="3.4375" stroke-linejoin="round" stroke-miterlimit="10" fill="#264478"/><path d="M997.103 469.229C997.103 475.304 992.179 480.228 986.104 480.228 980.029 480.228 975.104 475.304 975.104 469.229 975.104 463.154 980.029 458.229 986.104 458.229 992.179 458.229 997.103 463.154 997.103 469.229Z" stroke="#264478" stroke-width="3.4375" stroke-linejoin="round" stroke-miterlimit="10" fill="#264478"/><path d="M1116.1 486.229C1116.1 492.303 1111.18 497.228 1105.1 497.228 1099.03 497.228 1094.1 492.303 1094.1 486.229 1094.1 480.154 1099.03 475.229 1105.1 475.229 1111.18 475.229 1116.1 480.154 1116.1 486.229Z" stroke="#264478" stroke-width="3.4375" stroke-linejoin="round" stroke-miterlimit="10" fill="#264478"/><path d="M1235.1 498.229C1235.1 504.303 1230.18 509.228 1224.1 509.228 1218.03 509.228 1213.1 504.303 1213.1 498.229 1213.1 492.154 1218.03 487.229 1224.1 487.229 1230.18 487.229 1235.1 492.154 1235.1 498.229Z" stroke="#264478" stroke-width="3.4375" stroke-linejoin="round" stroke-miterlimit="10" fill="#264478"/><path d="M1354.1 430.228C1354.1 436.303 1349.18 441.228 1343.1 441.228 1337.03 441.228 1332.1 436.303 1332.1 430.228 1332.1 424.154 1337.03 419.229 1343.1 419.229 1349.18 419.229 1354.1 424.154 1354.1 430.228Z" stroke="#264478" stroke-width="3.4375" stroke-linejoin="round" stroke-miterlimit="10" fill="#264478"/><path d="M1473.1 356.229C1473.1 362.303 1468.18 367.228 1462.1 367.228 1456.03 367.228 1451.1 362.303 1451.1 356.229 1451.1 350.154 1456.03 345.229 1462.1 345.229 1468.18 345.229 1473.1 350.154 1473.1 356.229Z" stroke="#264478" stroke-width="3.4375" stroke-linejoin="round" stroke-miterlimit="10" fill="#264478"/><path d="M1591.1 454.229C1591.1 460.303 1586.18 465.228 1580.1 465.228 1574.03 465.228 1569.1 460.303 1569.1 454.229 1569.1 448.154 1574.03 443.229 1580.1 443.229 1586.18 443.229 1591.1 448.154 1591.1 454.229Z" stroke="#264478" stroke-width="3.4375" stroke-linejoin="round" stroke-miterlimit="10" fill="#264478"/><path d="M1710.1 410.229C1710.1 416.303 1705.18 421.228 1699.1 421.228 1693.03 421.228 1688.1 416.303 1688.1 410.229 1688.1 404.154 1693.03 399.229 1699.1 399.229 1705.18 399.229 1710.1 404.154 1710.1 410.229Z" stroke="#264478" stroke-width="3.4375" stroke-linejoin="round" stroke-miterlimit="10" fill="#264478"/><path d="M1829.1 292.229C1829.1 298.304 1824.18 303.228 1818.1 303.228 1812.03 303.228 1807.1 298.304 1807.1 292.229 1807.1 286.154 1812.03 281.229 1818.1 281.229 1824.18 281.229 1829.1 286.154 1829.1 292.229Z" stroke="#264478" stroke-width="3.4375" stroke-linejoin="round" stroke-miterlimit="10" fill="#264478"/><path d="M1948.1 365.229C1948.1 371.303 1943.18 376.228 1937.1 376.228 1931.03 376.228 1926.1 371.303 1926.1 365.229 1926.1 359.154 1931.03 354.229 1937.1 354.229 1943.18 354.229 1948.1 359.154 1948.1 365.229Z" stroke="#264478" stroke-width="3.4375" stroke-linejoin="round" stroke-miterlimit="10" fill="#264478"/></g><g clip-path="url(#clip17)"><text fill="#595959" font-family="Calibri,Calibri_MSFontService,sans-serif" font-weight="400" font-size="41" transform="matrix(1 0 0 1 510.996 781)">0</text></g><g clip-path="url(#clip18)"><text fill="#595959" font-family="Calibri,Calibri_MSFontService,sans-serif" font-weight="400" font-size="41" transform="matrix(1 0 0 1 427.396 713)">10000</text></g><g clip-path="url(#clip19)"><text fill="#595959" font-family="Calibri,Calibri_MSFontService,sans-serif" font-weight="400" font-size="41" transform="matrix(1 0 0 1 427.396 646)">20000</text></g><g clip-path="url(#clip20)"><text fill="#595959" font-family="Calibri,Calibri_MSFontService,sans-serif" font-weight="400" font-size="41" transform="matrix(1 0 0 1 427.396 579)">30000</text></g><g clip-path="url(#clip21)"><text fill="#595959" font-family="Calibri,Calibri_MSFontService,sans-serif" font-weight="400" font-size="41" transform="matrix(1 0 0 1 427.396 511)">40000</text></g><g clip-path="url(#clip22)"><text fill="#595959" font-family="Calibri,Calibri_MSFontService,sans-serif" font-weight="400" font-size="41" transform="matrix(1 0 0 1 427.396 444)">50000</text></g><g clip-path="url(#clip23)"><text fill="#595959" font-family="Calibri,Calibri_MSFontService,sans-serif" font-weight="400" font-size="41" transform="matrix(1 0 0 1 427.396 377)">60000</text></g><g clip-path="url(#clip24)"><text fill="#595959" font-family="Calibri,Calibri_MSFontService,sans-serif" font-weight="400" font-size="41" transform="matrix(1 0 0 1 427.396 310)">70000</text></g><g clip-path="url(#clip25)"><text fill="#595959" font-family="Calibri,Calibri_MSFontService,sans-serif" font-weight="400" font-size="41" transform="matrix(1 0 0 1 427.396 242)">80000</text></g><g clip-path="url(#clip26)"><text fill="#595959" font-family="Calibri,Calibri_MSFontService,sans-serif" font-weight="400" font-size="41" transform="matrix(1 0 0 1 619.172 834)">1</text></g><g clip-path="url(#clip27)"><text fill="#595959" font-family="Calibri,Calibri_MSFontService,sans-serif" font-weight="400" font-size="41" transform="matrix(1 0 0 1 738.091 834)">2</text></g><g clip-path="url(#clip28)"><text fill="#595959" font-family="Calibri,Calibri_MSFontService,sans-serif" font-weight="400" font-size="41" transform="matrix(1 0 0 1 857.01 834)">3</text></g><g clip-path="url(#clip29)"><text fill="#595959" font-family="Calibri,Calibri_MSFontService,sans-serif" font-weight="400" font-size="41" transform="matrix(1 0 0 1 975.928 834)">4</text></g><g clip-path="url(#clip30)"><text fill="#595959" font-family="Calibri,Calibri_MSFontService,sans-serif" font-weight="400" font-size="41" transform="matrix(1 0 0 1 1094.85 834)">5</text></g><g clip-path="url(#clip31)"><text fill="#595959" font-family="Calibri,Calibri_MSFontService,sans-serif" font-weight="400" font-size="41" transform="matrix(1 0 0 1 1213.77 834)">6</text></g><g clip-path="url(#clip32)"><text fill="#595959" font-family="Calibri,Calibri_MSFontService,sans-serif" font-weight="400" font-size="41" transform="matrix(1 0 0 1 1332.68 834)">7</text></g><g clip-path="url(#clip33)"><text fill="#595959" font-family="Calibri,Calibri_MSFontService,sans-serif" font-weight="400" font-size="41" transform="matrix(1 0 0 1 1451.6 834)">8</text></g><g clip-path="url(#clip34)"><text fill="#595959" font-family="Calibri,Calibri_MSFontService,sans-serif" font-weight="400" font-size="41" transform="matrix(1 0 0 1 1570.52 834)">9</text></g><g clip-path="url(#clip35)"><text fill="#595959" font-family="Calibri,Calibri_MSFontService,sans-serif" font-weight="400" font-size="41" transform="matrix(1 0 0 1 1678.99 834)">10</text></g><g clip-path="url(#clip36)"><text fill="#595959" font-family="Calibri,Calibri_MSFontService,sans-serif" font-weight="400" font-size="41" transform="matrix(1 0 0 1 1797.91 834)">11</text></g><g clip-path="url(#clip37)"><text fill="#595959" font-family="Calibri,Calibri_MSFontService,sans-serif" font-weight="400" font-size="41" transform="matrix(1 0 0 1 1916.83 834)">12</text></g><g clip-path="url(#clip38)"><text fill="#595959" font-family="Calibri,Calibri_MSFontService,sans-serif" font-weight="400" font-size="64" transform="matrix(1 0 0 1 709.431 156)">Monthly Sales </text></g><g clip-path="url(#clip39)"><text fill="#595959" font-family="Calibri,Calibri_MSFontService,sans-serif" font-weight="400" font-size="64" transform="matrix(1 0 0 1 1091.22 156)">-</text></g><g clip-path="url(#clip40)"><text fill="#595959" font-family="Calibri,Calibri_MSFontService,sans-serif" font-weight="400" font-size="64" transform="matrix(1 0 0 1 1125.37 156)">Product Wise Summary </text></g><g clip-path="url(#clip41)"><path d="M603 914 691 914" stroke="#4472C4" stroke-width="10.3125" stroke-linecap="round" stroke-linejoin="round" stroke-miterlimit="10" fill="none" fill-rule="evenodd"/></g><g clip-path="url(#clip42)"><path d="M658 913.999C658 920.075 653.075 924.999 647 924.999 640.925 924.999 636 920.075 636 913.999 636 907.924 640.925 903 647 903 653.075 903 658 907.924 658 913.999Z" stroke="#4472C4" stroke-width="3.4375" stroke-linejoin="round" stroke-miterlimit="10" fill="#4472C4"/></g><g clip-path="url(#clip43)"><text fill="#595959" font-family="Calibri,Calibri_MSFontService,sans-serif" font-weight="400" font-size="41" transform="matrix(1 0 0 1 700.721 926)">facecream</text></g><g clip-path="url(#clip44)"><path d="M920 914 1008 914" stroke="#ED7D31" stroke-width="10.3125" stroke-linecap="round" stroke-linejoin="round" stroke-miterlimit="10" fill="none" fill-rule="evenodd"/></g><g clip-path="url(#clip45)"><path d="M975 913.999C975 920.075 970.075 924.999 964 924.999 957.925 924.999 953 920.075 953 913.999 953 907.924 957.925 903 964 903 970.075 903 975 907.924 975 913.999Z" stroke="#ED7D31" stroke-width="3.4375" stroke-linejoin="round" stroke-miterlimit="10" fill="#ED7D31"/></g><g clip-path="url(#clip46)"><text fill="#595959" font-family="Calibri,Calibri_MSFontService,sans-serif" font-weight="400" font-size="41" transform="matrix(1 0 0 1 1017.52 926)">facewash</text></g><g clip-path="url(#clip47)"><path d="M1237 914 1325 914" stroke="#A5A5A5" stroke-width="10.3125" stroke-linecap="round" stroke-linejoin="round" stroke-miterlimit="10" fill="none" fill-rule="evenodd"/></g><g clip-path="url(#clip48)"><path d="M1292 913.999C1292 920.075 1287.08 924.999 1281 924.999 1274.93 924.999 1270 920.075 1270 913.999 1270 907.924 1274.93 903 1281 903 1287.08 903 1292 907.924 1292 913.999Z" stroke="#A5A5A5" stroke-width="3.4375" stroke-linejoin="round" stroke-miterlimit="10" fill="#A5A5A5"/></g><g clip-path="url(#clip49)"><text fill="#595959" font-family="Calibri,Calibri_MSFontService,sans-serif" font-weight="400" font-size="41" transform="matrix(1 0 0 1 1334.32 926)">toothpaste</text></g><g clip-path="url(#clip50)"><path d="M1554 914 1642 914" stroke="#FFC000" stroke-width="10.3125" stroke-linecap="round" stroke-linejoin="round" stroke-miterlimit="10" fill="none" fill-rule="evenodd"/></g><g clip-path="url(#clip51)"><path d="M1608 913.999C1608 920.075 1603.07 924.999 1597 924.999 1590.92 924.999 1586 920.075 1586 913.999 1586 907.924 1590.92 903 1597 903 1603.07 903 1608 907.924 1608 913.999Z" stroke="#FFC000" stroke-width="3.4375" stroke-linejoin="round" stroke-miterlimit="10" fill="#FFC000"/></g><g clip-path="url(#clip52)"><text fill="#595959" font-family="Calibri,Calibri_MSFontService,sans-serif" font-weight="400" font-size="41" transform="matrix(1 0 0 1 1651.12 926)">bathingsoap</text></g><g clip-path="url(#clip53)"><path d="M603 991 691 991" stroke="#5B9BD5" stroke-width="10.3125" stroke-linecap="round" stroke-linejoin="round" stroke-miterlimit="10" fill="none" fill-rule="evenodd"/></g><g clip-path="url(#clip54)"><path d="M658 990.999C658 997.075 653.075 1002 647 1002 640.925 1002 636 997.075 636 990.999 636 984.924 640.925 980 647 980 653.075 980 658 984.924 658 990.999Z" stroke="#5B9BD5" stroke-width="3.4375" stroke-linejoin="round" stroke-miterlimit="10" fill="#5B9BD5"/></g><g clip-path="url(#clip55)"><text fill="#595959" font-family="Calibri,Calibri_MSFontService,sans-serif" font-weight="400" font-size="41" transform="matrix(1 0 0 1 700.721 1003)">shampoo</text></g><g clip-path="url(#clip56)"><path d="M920 991 1008 991" stroke="#70AD47" stroke-width="10.3125" stroke-linecap="round" stroke-linejoin="round" stroke-miterlimit="10" fill="none" fill-rule="evenodd"/></g><g clip-path="url(#clip57)"><path d="M975 990.999C975 997.075 970.075 1002 964 1002 957.925 1002 953 997.075 953 990.999 953 984.924 957.925 980 964 980 970.075 980 975 984.924 975 990.999Z" stroke="#70AD47" stroke-width="3.4375" stroke-linejoin="round" stroke-miterlimit="10" fill="#70AD47"/></g><g clip-path="url(#clip58)"><text fill="#595959" font-family="Calibri,Calibri_MSFontService,sans-serif" font-weight="400" font-size="41" transform="matrix(1 0 0 1 1017.52 1003)">moisturizer</text></g><g clip-path="url(#clip59)"><path d="M1237 991 1325 991" stroke="#264478" stroke-width="10.3125" stroke-linecap="round" stroke-linejoin="round" stroke-miterlimit="10" fill="none" fill-rule="evenodd"/></g><g clip-path="url(#clip60)"><path d="M1292 990.999C1292 997.075 1287.08 1002 1281 1002 1274.93 1002 1270 997.075 1270 990.999 1270 984.924 1274.93 980 1281 980 1287.08 980 1292 984.924 1292 990.999Z" stroke="#264478" stroke-width="3.4375" stroke-linejoin="round" stroke-miterlimit="10" fill="#264478"/></g><g clip-path="url(#clip61)"><text fill="#595959" font-family="Calibri,Calibri_MSFontService,sans-serif" font-weight="400" font-size="41" transform="matrix(1 0 0 1 1334.32 1003)">total_units</text></g><rect x="398.5" y="61.5" width="1650" height="990" stroke="#D9D9D9" stroke-width="3.4375" stroke-linejoin="round" stroke-miterlimit="10" fill="none"/></g></svg>