<svg width="1653" height="993" xmlns="http://www.w3.org/2000/svg" xmlns:xlink="http://www.w3.org/1999/xlink" overflow="hidden"><defs><clipPath id="clip0"><rect x="1135" y="1202" width="1653" height="993"/></clipPath><clipPath id="clip1"><rect x="1135" y="1203" width="1650" height="990"/></clipPath><clipPath id="clip2"><rect x="1135" y="1203" width="1650" height="990"/></clipPath><clipPath id="clip3"><rect x="1135" y="1203" width="1650" height="990"/></clipPath><clipPath id="clip4"><rect x="1426" y="1528" width="954" height="437"/></clipPath><clipPath id="clip5"><rect x="1135" y="1203" width="1650" height="990"/></clipPath><clipPath id="clip6"><rect x="1135" y="1203" width="1650" height="990"/></clipPath><clipPath id="clip7"><rect x="1135" y="1203" width="1650" height="990"/></clipPath><clipPath id="clip8"><rect x="1135" y="1203" width="1650" height="990"/></clipPath><clipPath id="clip9"><rect x="1135" y="1203" width="1650" height="990"/></clipPath><clipPath id="clip10"><rect x="1135" y="1203" width="1650" height="990"/></clipPath><clipPath id="clip11"><rect x="1135" y="1203" width="1650" height="990"/></clipPath><clipPath id="clip12"><rect x="1135" y="1203" width="1650" height="990"/></clipPath><clipPath id="clip13"><rect x="1135" y="1203" width="1650" height="990"/></clipPath><clipPath id="clip14"><rect x="1135" y="1203" width="1650" height="990"/></clipPath><clipPath id="clip15"><rect x="1135" y="1203" width="1650" height="990"/></clipPath><clipPath id="clip16"><rect x="1135" y="1203" width="1650" height="990"/></clipPath><clipPath id="clip17"><rect x="1135" y="1203" width="1650" height="990"/></clipPath><clipPath id="clip18"><rect x="1135" y="1203" width="1650" height="990"/></clipPath><clipPath id="clip19"><rect x="1135" y="1203" width="1650" height="990"/></clipPath><clipPath id="clip20"><rect x="1135" y="1203" width="1650" height="990"/></clipPath><clipPath id="clip21"><rect x="1135" y="1203" width="1650" height="990"/></clipPath><clipPath id="clip22"><rect x="1135" y="1203" width="1650" height="990"/></clipPath><clipPath id="clip23"><rect x="1135" y="1203" width="1650" height="990"/></clipPath><clipPath id="clip24"><rect x="1135" y="1203" width="1650" height="990"/></clipPath><clipPath id="clip25"><rect x="1135" y="1203" width="1650" height="990"/></clipPath><clipPath id="clip26"><rect x="1135" y="1203" width="1650" height="990"/></clipPath><clipPath id="clip27"><rect x="1135" y="1203" width="1650" height="990"/></clipPath><clipPath id="clip28"><rect x="1135" y="1203" width="1650" height="990"/></clipPath><clipPath id="clip29"><rect x="1135" y="1203" width="1650" height="990"/></clipPath></defs><g clip-path="url(#clip0)" transform="translate(-1135 -1202)"><rect x="1136" y="1203" width="1650" height="990" fill="#FFFFFF"/><g clip-path="url(#clip1)"><path d="M1426.5 1875.56 2377.5 1875.56M1426.5 1788.56 2377.5 1788.56M1426.5 1702.56 2377.5 1702.56M1426.5 1615.55 2377.5 1615.55M1426.5 1528.5 2377.5 1528.5" stroke="#D9D9D9" stroke-width="3.4375" stroke-linejoin="round" stroke-miterlimit="10" fill="none"/></g><g clip-path="url(#clip2)"><path d="M1426.5 1962.5 2377.5 1962.5" stroke="#D9D9D9" stroke-width="3.4375" stroke-linejoin="round" stroke-miterlimit="10" fill="none" fill-rule="evenodd"/></g><g clip-path="url(#clip3)"><path d="M1426.5 1962.5 1426.5 1975.5M1505.55 1962.5 1505.55 1975.5M1584.55 1962.5 1584.55 1975.5M1663.55 1962.5 1663.55 1975.5M1743.56 1962.5 1743.56 1975.5M1822.56 1962.5 1822.56 1975.5M1901.56 1962.5 1901.56 1975.5M1980.57 1962.5 1980.57 1975.5M2060.57 1962.5 2060.57 1975.5M2139.57 1962.5 2139.57 1975.5M2218.57 1962.5 2218.57 1975.5M2297.58 1962.5 2297.58 1975.5M2377.5 1962.5 2377.5 1975.5" stroke="#D9D9D9" stroke-width="3.4375" stroke-linejoin="round" stroke-miterlimit="10" fill="none"/></g><g clip-path="url(#clip4)"><path d="M1466 1779.06 1545.05 1803 1624.05 1767.06 1704.06 1769.06 1783.06 1780.06 1862.06 1788.06 1941.06 1706.06 2021.07 1649.05 2100.07 1759.06 2179.07 1731.06 2258.07 1604 2338 1702.06" stroke="#7CAFDD" stroke-width="10.3125" stroke-linecap="round" stroke-linejoin="round" stroke-miterlimit="10" fill="none"/></g><g clip-path="url(#clip5)"><path d="M1476.02 1779.62C1476.02 1785.7 1471.1 1790.62 1465.02 1790.62 1458.95 1790.62 1454.02 1785.7 1454.02 1779.62 1454.02 1773.55 1458.95 1768.62 1465.02 1768.62 1471.1 1768.62 1476.02 1773.55 1476.02 1779.62Z" stroke="#7CAFDD" stroke-width="3.4375" stroke-linejoin="round" stroke-miterlimit="10" fill="#7CAFDD"/><path d="M1556.02 1803.62C1556.02 1809.7 1551.1 1814.62 1545.02 1814.62 1538.95 1814.62 1534.02 1809.7 1534.02 1803.62 1534.02 1797.55 1538.95 1792.63 1545.02 1792.63 1551.1 1792.63 1556.02 1797.55 1556.02 1803.62Z" stroke="#7CAFDD" stroke-width="3.4375" stroke-linejoin="round" stroke-miterlimit="10" fill="#7CAFDD"/><path d="M1635.02 1767.62C1635.02 1773.7 1630.1 1778.62 1624.02 1778.62 1617.95 1778.62 1613.02 1773.7 1613.02 1767.62 1613.02 1761.55 1617.95 1756.62 1624.02 1756.62 1630.1 1756.62 1635.02 1761.55 1635.02 1767.62Z" stroke="#7CAFDD" stroke-width="3.4375" stroke-linejoin="round" stroke-miterlimit="10" fill="#7CAFDD"/><path d="M1714.02 1769.62C1714.02 1775.7 1709.1 1780.62 1703.02 1780.62 1696.95 1780.62 1692.02 1775.7 1692.02 1769.62 1692.02 1763.55 1696.95 1758.62 1703.02 1758.62 1709.1 1758.62 1714.02 1763.55 1714.02 1769.62Z" stroke="#7CAFDD" stroke-width="3.4375" stroke-linejoin="round" stroke-miterlimit="10" fill="#7CAFDD"/><path d="M1793.02 1780.62C1793.02 1786.7 1788.1 1791.62 1782.02 1791.62 1775.95 1791.62 1771.02 1786.7 1771.02 1780.62 1771.02 1774.55 1775.95 1769.62 1782.02 1769.62 1788.1 1769.62 1793.02 1774.55 1793.02 1780.62Z" stroke="#7CAFDD" stroke-width="3.4375" stroke-linejoin="round" stroke-miterlimit="10" fill="#7CAFDD"/><path d="M1873.02 1787.62C1873.02 1793.7 1868.1 1798.62 1862.02 1798.62 1855.95 1798.62 1851.02 1793.7 1851.02 1787.62 1851.02 1781.55 1855.95 1776.62 1862.02 1776.62 1868.1 1776.62 1873.02 1781.55 1873.02 1787.62Z" stroke="#7CAFDD" stroke-width="3.4375" stroke-linejoin="round" stroke-miterlimit="10" fill="#7CAFDD"/><path d="M1952.02 1706.62C1952.02 1712.7 1947.1 1717.62 1941.02 1717.62 1934.95 1717.62 1930.02 1712.7 1930.02 1706.62 1930.02 1700.55 1934.95 1695.62 1941.02 1695.62 1947.1 1695.62 1952.02 1700.55 1952.02 1706.62Z" stroke="#7CAFDD" stroke-width="3.4375" stroke-linejoin="round" stroke-miterlimit="10" fill="#7CAFDD"/><path d="M2031.02 1648.62C2031.02 1654.7 2026.1 1659.62 2020.02 1659.62 2013.95 1659.62 2009.02 1654.7 2009.02 1648.62 2009.02 1642.55 2013.95 1637.62 2020.02 1637.62 2026.1 1637.62 2031.02 1642.55 2031.02 1648.62Z" stroke="#7CAFDD" stroke-width="3.4375" stroke-linejoin="round" stroke-miterlimit="10" fill="#7CAFDD"/><path d="M2110.02 1759.62C2110.02 1765.7 2105.1 1770.62 2099.02 1770.62 2092.95 1770.62 2088.02 1765.7 2088.02 1759.62 2088.02 1753.55 2092.95 1748.63 2099.02 1748.63 2105.1 1748.63 2110.02 1753.55 2110.02 1759.62Z" stroke="#7CAFDD" stroke-width="3.4375" stroke-linejoin="round" stroke-miterlimit="10" fill="#7CAFDD"/><path d="M2190.02 1730.62C2190.02 1736.7 2185.1 1741.62 2179.02 1741.62 2172.95 1741.62 2168.02 1736.7 2168.02 1730.62 2168.02 1724.55 2172.95 1719.62 2179.02 1719.62 2185.1 1719.62 2190.02 1724.55 2190.02 1730.62Z" stroke="#7CAFDD" stroke-width="3.4375" stroke-linejoin="round" stroke-miterlimit="10" fill="#7CAFDD"/><path d="M2269.02 1604.62C2269.02 1610.7 2264.1 1615.62 2258.02 1615.62 2251.95 1615.62 2247.02 1610.7 2247.02 1604.62 2247.02 1598.55 2251.95 1593.62 2258.02 1593.62 2264.1 1593.62 2269.02 1598.55 2269.02 1604.62Z" stroke="#7CAFDD" stroke-width="3.4375" stroke-linejoin="round" stroke-miterlimit="10" fill="#7CAFDD"/><path d="M2348.02 1701.62C2348.02 1707.7 2343.1 1712.62 2337.02 1712.62 2330.95 1712.62 2326.02 1707.7 2326.02 1701.62 2326.02 1695.55 2330.95 1690.62 2337.02 1690.62 2343.1 1690.62 2348.02 1695.55 2348.02 1701.62Z" stroke="#7CAFDD" stroke-width="3.4375" stroke-linejoin="round" stroke-miterlimit="10" fill="#7CAFDD"/></g><g clip-path="url(#clip6)"><text fill="#595959" font-family="Calibri,Calibri_MSFontService,sans-serif" font-weight="400" font-size="41" transform="matrix(1 0 0 1 1367 1974)">0</text></g><g clip-path="url(#clip7)"><text fill="#595959" font-family="Calibri,Calibri_MSFontService,sans-serif" font-weight="400" font-size="41" transform="matrix(1 0 0 1 1262.5 1887)">100000</text></g><g clip-path="url(#clip8)"><text fill="#595959" font-family="Calibri,Calibri_MSFontService,sans-serif" font-weight="400" font-size="41" transform="matrix(1 0 0 1 1262.5 1800)">200000</text></g><g clip-path="url(#clip9)"><text fill="#595959" font-family="Calibri,Calibri_MSFontService,sans-serif" font-weight="400" font-size="41" transform="matrix(1 0 0 1 1262.5 1714)">300000</text></g><g clip-path="url(#clip10)"><text fill="#595959" font-family="Calibri,Calibri_MSFontService,sans-serif" font-weight="400" font-size="41" transform="matrix(1 0 0 1 1262.5 1627)">400000</text></g><g clip-path="url(#clip11)"><text fill="#595959" font-family="Calibri,Calibri_MSFontService,sans-serif" font-weight="400" font-size="41" transform="matrix(1 0 0 1 1262.5 1540)">500000</text></g><g clip-path="url(#clip12)"><text fill="#595959" font-family="Calibri,Calibri_MSFontService,sans-serif" font-weight="400" font-size="41" transform="matrix(1 0 0 1 1455.35 2027)">1</text></g><g clip-path="url(#clip13)"><text fill="#595959" font-family="Calibri,Calibri_MSFontService,sans-serif" font-weight="400" font-size="41" transform="matrix(1 0 0 1 1534.61 2027)">2</text></g><g clip-path="url(#clip14)"><text fill="#595959" font-family="Calibri,Calibri_MSFontService,sans-serif" font-weight="400" font-size="41" transform="matrix(1 0 0 1 1613.87 2027)">3</text></g><g clip-path="url(#clip15)"><text fill="#595959" font-family="Calibri,Calibri_MSFontService,sans-serif" font-weight="400" font-size="41" transform="matrix(1 0 0 1 1693.13 2027)">4</text></g><g clip-path="url(#clip16)"><text fill="#595959" font-family="Calibri,Calibri_MSFontService,sans-serif" font-weight="400" font-size="41" transform="matrix(1 0 0 1 1772.39 2027)">5</text></g><g clip-path="url(#clip17)"><text fill="#595959" font-family="Calibri,Calibri_MSFontService,sans-serif" font-weight="400" font-size="41" transform="matrix(1 0 0 1 1851.65 2027)">6</text></g><g clip-path="url(#clip18)"><text fill="#595959" font-family="Calibri,Calibri_MSFontService,sans-serif" font-weight="400" font-size="41" transform="matrix(1 0 0 1 1930.91 2027)">7</text></g><g clip-path="url(#clip19)"><text fill="#595959" font-family="Calibri,Calibri_MSFontService,sans-serif" font-weight="400" font-size="41" transform="matrix(1 0 0 1 2010.16 2027)">8</text></g><g clip-path="url(#clip20)"><text fill="#595959" font-family="Calibri,Calibri_MSFontService,sans-serif" font-weight="400" font-size="41" transform="matrix(1 0 0 1 2089.42 2027)">9</text></g><g clip-path="url(#clip21)"><text fill="#595959" font-family="Calibri,Calibri_MSFontService,sans-serif" font-weight="400" font-size="41" transform="matrix(1 0 0 1 2158.23 2027)">10</text></g><g clip-path="url(#clip22)"><text fill="#595959" font-family="Calibri,Calibri_MSFontService,sans-serif" font-weight="400" font-size="41" transform="matrix(1 0 0 1 2237.49 2027)">11</text></g><g clip-path="url(#clip23)"><text fill="#595959" font-family="Calibri,Calibri_MSFontService,sans-serif" font-weight="400" font-size="41" transform="matrix(1 0 0 1 2316.75 2027)">12</text></g><g clip-path="url(#clip24)"><text fill="#595959" font-family="Calibri,Calibri_MSFontService,sans-serif" font-weight="400" font-size="46" transform="matrix(6.12323e-17 -1 1 6.12323e-17 1236.81 1845)">Total Sales</text></g><g clip-path="url(#clip25)"><text fill="#595959" font-family="Calibri,Calibri_MSFontService,sans-serif" font-weight="400" font-size="46" transform="matrix(1 0 0 1 1724.37 2096)">Month(Numbered)</text></g><g clip-path="url(#clip26)"><text fill="#595959" font-family="Calibri,Calibri_MSFontService,sans-serif" font-weight="400" font-size="64" transform="matrix(1 0 0 1 1445.69 1340)">Profit Generated each Month</text></g><g clip-path="url(#clip27)"><path d="M2449 1467 2537 1467" stroke="#7CAFDD" stroke-width="10.3125" stroke-linecap="round" stroke-linejoin="round" stroke-miterlimit="10" fill="none" fill-rule="evenodd"/></g><g clip-path="url(#clip28)"><path d="M2504 1467C2504 1473.07 2499.07 1478 2493 1478 2486.93 1478 2482 1473.07 2482 1467 2482 1460.92 2486.93 1456 2493 1456 2499.07 1456 2504 1460.92 2504 1467Z" stroke="#7CAFDD" stroke-width="3.4375" stroke-linejoin="round" stroke-miterlimit="10" fill="#7CAFDD"/></g><g clip-path="url(#clip29)"><text fill="#595959" font-family="Calibri,Calibri_MSFontService,sans-serif" font-weight="400" font-size="41" transform="matrix(1 0 0 1 2546.29 1479)">total_profit</text></g><rect x="1136.5" y="1203.5" width="1650" height="990" stroke="#D9D9D9" stroke-width="3.4375" stroke-linejoin="round" stroke-miterlimit="10" fill="none"/></g></svg>