<svg width="1653" height="993" xmlns="http://www.w3.org/2000/svg" xmlns:xlink="http://www.w3.org/1999/xlink" overflow="hidden"><defs><filter id="fx0" x="-10%" y="-10%" width="120%" height="120%" filterUnits="userSpaceOnUse" primitiveUnits="userSpaceOnUse"><feComponentTransfer color-interpolation-filters="sRGB"><feFuncR type="discrete" tableValues="0 0"/><feFuncG type="discrete" tableValues="0 0"/><feFuncB type="discrete" tableValues="0 0"/><feFuncA type="linear" slope="0.631373" intercept="0"/></feComponentTransfer><feGaussianBlur stdDeviation="6.875 6.875"/></filter><filter id="fx1" x="-10%" y="-10%" width="120%" height="120%" filterUnits="userSpaceOnUse" primitiveUnits="userSpaceOnUse"><feComponentTransfer color-interpolation-filters="sRGB"><feFuncR type="discrete" tableValues="0 0"/><feFuncG type="discrete" tableValues="0 0"/><feFuncB type="discrete" tableValues="0 0"/><feFuncA type="linear" slope="0.631373" intercept="0"/></feComponentTransfer><feGaussianBlur stdDeviation="6.875 6.875"/></filter><filter id="fx2" x="-10%" y="-10%" width="120%" height="120%" filterUnits="userSpaceOnUse" primitiveUnits="userSpaceOnUse"><feComponentTransfer color-interpolation-filters="sRGB"><feFuncR type="discrete" tableValues="0 0"/><feFuncG type="discrete" tableValues="0 0"/><feFuncB type="discrete" tableValues="0 0"/><feFuncA type="linear" slope="0.631373" intercept="0"/></feComponentTransfer><feGaussianBlur stdDeviation="6.875 6.875"/></filter><filter id="fx3" x="-10%" y="-10%" width="120%" height="120%" filterUnits="userSpaceOnUse" primitiveUnits="userSpaceOnUse"><feComponentTransfer color-interpolation-filters="sRGB"><feFuncR type="discrete" tableValues="0 0"/><feFuncG type="discrete" tableValues="0 0"/><feFuncB type="discrete" tableValues="0 0"/><feFuncA type="linear" slope="0.631373" intercept="0"/></feComponentTransfer><feGaussianBlur stdDeviation="6.875 6.875"/></filter><filter id="fx4" x="-10%" y="-10%" width="120%" height="120%" filterUnits="userSpaceOnUse" primitiveUnits="userSpaceOnUse"><feComponentTransfer color-interpolation-filters="sRGB"><feFuncR type="discrete" tableValues="0 0"/><feFuncG type="discrete" tableValues="0 0"/><feFuncB type="discrete" tableValues="0 0"/><feFuncA type="linear" slope="0.631373" intercept="0"/></feComponentTransfer><feGaussianBlur stdDeviation="6.875 6.875"/></filter><filter id="fx5" x="-10%" y="-10%" width="120%" height="120%" filterUnits="userSpaceOnUse" primitiveUnits="userSpaceOnUse"><feComponentTransfer color-interpolation-filters="sRGB"><feFuncR type="discrete" tableValues="0 0"/><feFuncG type="discrete" tableValues="0 0"/><feFuncB type="discrete" tableValues="0 0"/><feFuncA type="linear" slope="0.631373" intercept="0"/></feComponentTransfer><feGaussianBlur stdDeviation="6.875 6.875"/></filter><clipPath id="clip6"><rect x="169" y="2158" width="1653" height="993"/></clipPath><clipPath id="clip7"><rect x="169" y="2158" width="1650" height="990"/></clipPath><clipPath id="clip8"><rect x="-3" y="-3" width="243" height="328"/></clipPath><clipPath id="clip9"><rect x="0" y="0" width="239" height="324"/></clipPath><clipPath id="clip10"><rect x="169" y="2158" width="1650" height="990"/></clipPath><clipPath id="clip11"><rect x="-3" y="-3" width="310" height="251"/></clipPath><clipPath id="clip12"><rect x="0" y="0" width="303" height="245"/></clipPath><clipPath id="clip13"><rect x="169" y="2158" width="1650" height="990"/></clipPath><clipPath id="clip14"><rect x="-3" y="-3" width="328" height="413"/></clipPath><clipPath id="clip15"><rect x="0" y="0" width="323" height="407"/></clipPath><clipPath id="clip16"><rect x="169" y="2158" width="1650" height="990"/></clipPath><clipPath id="clip17"><rect x="-3" y="-3" width="435" height="486"/></clipPath><clipPath id="clip18"><rect x="0" y="0" width="430" height="479"/></clipPath><clipPath id="clip19"><rect x="169" y="2158" width="1650" height="990"/></clipPath><clipPath id="clip20"><rect x="-3" y="-3" width="284" height="306"/></clipPath><clipPath id="clip21"><rect x="0" y="0" width="277" height="300"/></clipPath><clipPath id="clip22"><rect x="169" y="2158" width="1650" height="990"/></clipPath><clipPath id="clip23"><rect x="-3" y="-3" width="162" height="328"/></clipPath><clipPath id="clip24"><rect x="0" y="0" width="157" height="324"/></clipPath><clipPath id="clip25"><rect x="169" y="2158" width="1650" height="990"/></clipPath><linearGradient x1="1092.06" y1="2387.08" x2="1092.06" y2="2666.71" gradientUnits="userSpaceOnUse" spreadMethod="reflect" id="fill26"><stop offset="0" stop-color="#6083CB"/><stop offset="0.5" stop-color="#3E70CA"/><stop offset="1" stop-color="#2E61BA"/></linearGradient><clipPath id="clip27"><rect x="169" y="2158" width="1650" height="990"/></clipPath><linearGradient x1="1124.16" y1="2466.24" x2="1124.16" y2="2666.71" gradientUnits="userSpaceOnUse" spreadMethod="reflect" id="fill28"><stop offset="0" stop-color="#F18C55"/><stop offset="0.5" stop-color="#F67B28"/><stop offset="1" stop-color="#E56B17"/></linearGradient><clipPath id="clip29"><rect x="169" y="2158" width="1650" height="990"/></clipPath><linearGradient x1="1134.43" y1="2561.65" x2="1134.43" y2="2925.14" gradientUnits="userSpaceOnUse" spreadMethod="reflect" id="fill30"><stop offset="0" stop-color="#AFAFAF"/><stop offset="0.5" stop-color="#A5A5A5"/><stop offset="1" stop-color="#929292"/></linearGradient><clipPath id="clip31"><rect x="169" y="2158" width="1650" height="990"/></clipPath><linearGradient x1="908.164" y1="2511.58" x2="908.164" y2="2946.41" gradientUnits="userSpaceOnUse" spreadMethod="reflect" id="fill32"><stop offset="0" stop-color="#FFC746"/><stop offset="0.5" stop-color="#FFC600"/><stop offset="1" stop-color="#E5B600"/></linearGradient><clipPath id="clip33"><rect x="169" y="2158" width="1650" height="990"/></clipPath><linearGradient x1="878.255" y1="2410.73" x2="878.255" y2="2666.71" gradientUnits="userSpaceOnUse" spreadMethod="reflect" id="fill34"><stop offset="0" stop-color="#71A6DB"/><stop offset="0.5" stop-color="#559BDB"/><stop offset="1" stop-color="#438AC9"/></linearGradient><clipPath id="clip35"><rect x="169" y="2158" width="1650" height="990"/></clipPath><linearGradient x1="938.31" y1="2387.08" x2="938.31" y2="2666.71" gradientUnits="userSpaceOnUse" spreadMethod="reflect" id="fill36"><stop offset="0" stop-color="#81B861"/><stop offset="0.5" stop-color="#6FB242"/><stop offset="1" stop-color="#61A235"/></linearGradient><clipPath id="clip37"><rect x="169" y="2158" width="1650" height="990"/></clipPath><clipPath id="clip38"><rect x="169" y="2158" width="1650" height="990"/></clipPath><clipPath id="clip39"><rect x="1107" y="2281" width="206" height="117"/></clipPath><clipPath id="clip40"><rect x="169" y="2158" width="1650" height="990"/></clipPath><clipPath id="clip41"><rect x="1107" y="2281" width="206" height="117"/></clipPath><clipPath id="clip42"><rect x="169" y="2158" width="1650" height="990"/></clipPath><clipPath id="clip43"><rect x="169" y="2158" width="1650" height="990"/></clipPath><clipPath id="clip44"><rect x="1240" y="2407" width="187" height="117"/></clipPath><clipPath id="clip45"><rect x="169" y="2158" width="1650" height="990"/></clipPath><clipPath id="clip46"><rect x="1240" y="2407" width="187" height="117"/></clipPath><clipPath id="clip47"><rect x="169" y="2158" width="1650" height="990"/></clipPath><clipPath id="clip48"><rect x="169" y="2158" width="1650" height="990"/></clipPath><clipPath id="clip49"><rect x="1267" y="2745" width="216" height="117"/></clipPath><clipPath id="clip50"><rect x="169" y="2158" width="1650" height="990"/></clipPath><clipPath id="clip51"><rect x="1267" y="2745" width="216" height="117"/></clipPath><clipPath id="clip52"><rect x="169" y="2158" width="1650" height="990"/></clipPath><clipPath id="clip53"><rect x="169" y="2158" width="1650" height="990"/></clipPath><clipPath id="clip54"><rect x="528" y="2840" width="238" height="117"/></clipPath><clipPath id="clip55"><rect x="169" y="2158" width="1650" height="990"/></clipPath><clipPath id="clip56"><rect x="528" y="2840" width="238" height="117"/></clipPath><clipPath id="clip57"><rect x="169" y="2158" width="1650" height="990"/></clipPath><clipPath id="clip58"><rect x="169" y="2158" width="1650" height="990"/></clipPath><clipPath id="clip59"><rect x="618" y="2328" width="186" height="116"/></clipPath><clipPath id="clip60"><rect x="169" y="2158" width="1650" height="990"/></clipPath><clipPath id="clip61"><rect x="618" y="2328" width="186" height="116"/></clipPath><clipPath id="clip62"><rect x="169" y="2158" width="1650" height="990"/></clipPath><clipPath id="clip63"><rect x="169" y="2158" width="1650" height="990"/></clipPath><clipPath id="clip64"><rect x="753" y="2266" width="221" height="117"/></clipPath><clipPath id="clip65"><rect x="169" y="2158" width="1650" height="990"/></clipPath><clipPath id="clip66"><rect x="753" y="2266" width="221" height="117"/></clipPath><clipPath id="clip67"><rect x="169" y="2158" width="1650" height="990"/></clipPath><clipPath id="clip68"><rect x="169" y="2158" width="1650" height="990"/></clipPath><linearGradient x1="298.5" y1="3071" x2="298.5" y2="3094" gradientUnits="userSpaceOnUse" spreadMethod="reflect" id="fill69"><stop offset="0" stop-color="#6083CB"/><stop offset="0.5" stop-color="#3E70CA"/><stop offset="1" stop-color="#2E61BA"/></linearGradient><clipPath id="clip70"><rect x="169" y="2158" width="1650" height="990"/></clipPath><clipPath id="clip71"><rect x="169" y="2158" width="1650" height="990"/></clipPath><linearGradient x1="539.5" y1="3071" x2="539.5" y2="3094" gradientUnits="userSpaceOnUse" spreadMethod="reflect" id="fill72"><stop offset="0" stop-color="#F18C55"/><stop offset="0.5" stop-color="#F67B28"/><stop offset="1" stop-color="#E56B17"/></linearGradient><clipPath id="clip73"><rect x="169" y="2158" width="1650" height="990"/></clipPath><clipPath id="clip74"><rect x="169" y="2158" width="1650" height="990"/></clipPath><linearGradient x1="762.5" y1="3071" x2="762.5" y2="3094" gradientUnits="userSpaceOnUse" spreadMethod="reflect" id="fill75"><stop offset="0" stop-color="#AFAFAF"/><stop offset="0.5" stop-color="#A5A5A5"/><stop offset="1" stop-color="#929292"/></linearGradient><clipPath id="clip76"><rect x="169" y="2158" width="1650" height="990"/></clipPath><clipPath id="clip77"><rect x="169" y="2158" width="1650" height="990"/></clipPath><linearGradient x1="1013" y1="3071" x2="1013" y2="3094" gradientUnits="userSpaceOnUse" spreadMethod="reflect" id="fill78"><stop offset="0" stop-color="#FFC746"/><stop offset="0.5" stop-color="#FFC600"/><stop offset="1" stop-color="#E5B600"/></linearGradient><clipPath id="clip79"><rect x="169" y="2158" width="1650" height="990"/></clipPath><clipPath id="clip80"><rect x="169" y="2158" width="1650" height="990"/></clipPath><linearGradient x1="1285.5" y1="3071" x2="1285.5" y2="3094" gradientUnits="userSpaceOnUse" spreadMethod="reflect" id="fill81"><stop offset="0" stop-color="#71A6DB"/><stop offset="0.5" stop-color="#559BDB"/><stop offset="1" stop-color="#438AC9"/></linearGradient><clipPath id="clip82"><rect x="169" y="2158" width="1650" height="990"/></clipPath><clipPath id="clip83"><rect x="169" y="2158" width="1650" height="990"/></clipPath><linearGradient x1="1506.5" y1="3071" x2="1506.5" y2="3094" gradientUnits="userSpaceOnUse" spreadMethod="reflect" id="fill84"><stop offset="0" stop-color="#81B861"/><stop offset="0.5" stop-color="#6FB242"/><stop offset="1" stop-color="#61A235"/></linearGradient><clipPath id="clip85"><rect x="169" y="2158" width="1650" height="990"/></clipPath></defs><g clip-path="url(#clip6)" transform="translate(-169 -2158)"><rect x="170" y="2159" width="1650" height="990" fill="#FFFFFF"/><g clip-path="url(#clip7)"><g clip-path="url(#clip8)" filter="url(#fx0)" transform="translate(973 2372)"><g clip-path="url(#clip9)"><path d="M21.5833 21.9536C94.3919 21.9536 164.329 50.3514 216.528 101.11L21.5833 301.584Z" fill="#FF0000" fill-rule="evenodd"/></g></g></g><g clip-path="url(#clip10)"><g clip-path="url(#clip11)" filter="url(#fx1)" transform="translate(973 2451)"><g clip-path="url(#clip12)"><path d="M216.528 22.11C244.308 49.1241 266.171 81.6171 280.729 117.528L21.5833 222.584Z" fill="#FF0000" fill-rule="evenodd"/></g></g></g><g clip-path="url(#clip13)"><g clip-path="url(#clip14)" filter="url(#fx2)" transform="translate(973 2547)"><g clip-path="url(#clip15)"><path d="M280.729 21.5274C338.475 163.971 270.429 326.317 128.377 385.018L21.5833 126.584Z" fill="#FF0000" fill-rule="evenodd"/></g></g></g><g clip-path="url(#clip16)"><g clip-path="url(#clip17)" filter="url(#fx3)" transform="translate(693 2496)"><g clip-path="url(#clip18)"><path d="M408.376 436.018C265.647 494.998 102.129 427.106 43.1487 284.377 7.55042 198.231 17.2173 100.01 68.927 22.457L301.583 177.584Z" fill="#FF0000" fill-rule="evenodd"/></g></g></g><g clip-path="url(#clip19)"><g clip-path="url(#clip20)" filter="url(#fx4)" transform="translate(740 2396)"><g clip-path="url(#clip21)"><path d="M21.9275 122.458C51.5232 78.0705 93.1987 43.0759 142.036 21.6035L254.583 277.584Z" fill="#FF0000" fill-rule="evenodd"/></g></g></g><g clip-path="url(#clip22)"><g clip-path="url(#clip23)" filter="url(#fx5)" transform="translate(860 2372)"><g clip-path="url(#clip24)"><path d="M22.0358 45.6035C57.5079 30.0074 95.8343 21.9539 134.584 21.9539L134.583 301.584Z" fill="#FF0000" fill-rule="evenodd"/></g></g></g><g clip-path="url(#clip25)"><path d="M994.583 2387.08C1067.39 2387.08 1137.33 2415.48 1189.53 2466.23L994.583 2666.71Z" fill="url(#fill26)" fill-rule="evenodd"/></g><g clip-path="url(#clip27)"><path d="M1189.53 2466.24C1217.31 2493.25 1239.17 2525.74 1253.73 2561.65L994.583 2666.71Z" fill="url(#fill28)" fill-rule="evenodd"/></g><g clip-path="url(#clip29)"><path d="M1253.73 2561.65C1311.47 2704.1 1243.43 2866.44 1101.38 2925.14L994.583 2666.71Z" fill="url(#fill30)" fill-rule="evenodd"/></g><g clip-path="url(#clip31)"><path d="M1101.38 2925.14C958.647 2984.12 795.129 2916.23 736.149 2773.5 700.55 2687.36 710.217 2589.14 761.927 2511.58L994.583 2666.71Z" fill="url(#fill32)" fill-rule="evenodd"/></g><g clip-path="url(#clip33)"><path d="M761.927 2511.58C791.523 2467.2 833.199 2432.2 882.036 2410.73L994.583 2666.71Z" fill="url(#fill34)" fill-rule="evenodd"/></g><g clip-path="url(#clip35)"><path d="M882.036 2410.73C917.508 2395.13 955.834 2387.08 994.584 2387.08L994.583 2666.71Z" fill="url(#fill36)" fill-rule="evenodd"/></g><g clip-path="url(#clip37)"><path d="M1107.5 2281.5 1141.67 2281.5 1141.67 2281.5 1192.92 2281.5 1312.5 2281.5 1312.5 2349.17 1312.5 2349.17 1312.5 2378.17 1312.5 2397.5 1192.92 2397.5 1100.1 2407.9 1141.67 2397.5 1107.5 2397.5 1107.5 2378.17 1107.5 2349.17 1107.5 2349.17Z" stroke="#BFBFBF" stroke-width="3.4375" stroke-linejoin="round" stroke-miterlimit="10" fill="#FFFFFF" fill-rule="evenodd"/></g><g clip-path="url(#clip38)"><g clip-path="url(#clip39)"><text fill="#595959" font-family="Calibri,Calibri_MSFontService,sans-serif" font-weight="400" font-size="41" transform="matrix(1 0 0 1 1121.92 2328)">facecream</text></g></g><g clip-path="url(#clip40)"><g clip-path="url(#clip41)"><text fill="#595959" font-family="Calibri,Calibri_MSFontService,sans-serif" font-weight="400" font-size="41" transform="matrix(1 0 0 1 1173.96 2379)">12%</text></g></g><g clip-path="url(#clip42)"><path d="M1240.5 2407.5 1271.5 2407.5 1271.5 2407.5 1318 2407.5 1426.5 2407.5 1426.5 2475.17 1426.5 2475.17 1426.5 2504.17 1426.5 2523.5 1318 2523.5 1271.5 2523.5 1271.5 2523.5 1240.5 2523.5 1240.5 2504.17 1226.9 2510.79 1240.5 2475.17Z" stroke="#BFBFBF" stroke-width="3.4375" stroke-linejoin="round" stroke-miterlimit="10" fill="#FFFFFF" fill-rule="evenodd"/></g><g clip-path="url(#clip43)"><g clip-path="url(#clip44)"><text fill="#595959" font-family="Calibri,Calibri_MSFontService,sans-serif" font-weight="400" font-size="41" transform="matrix(1 0 0 1 1254.89 2454)">facewash</text></g></g><g clip-path="url(#clip45)"><g clip-path="url(#clip46)"><text fill="#595959" font-family="Calibri,Calibri_MSFontService,sans-serif" font-weight="400" font-size="41" transform="matrix(1 0 0 1 1308.38 2505)">6%</text></g></g><g clip-path="url(#clip47)"><path d="M1267.5 2745.5 1303.33 2745.5 1303.33 2745.5 1357.08 2745.5 1482.5 2745.5 1482.5 2764.83 1482.5 2764.83 1482.5 2793.83 1482.5 2861.5 1357.08 2861.5 1303.33 2861.5 1303.33 2861.5 1267.5 2861.5 1267.5 2793.83 1252.2 2774.85 1267.5 2764.83Z" stroke="#BFBFBF" stroke-width="3.4375" stroke-linejoin="round" stroke-miterlimit="10" fill="#FFFFFF" fill-rule="evenodd"/></g><g clip-path="url(#clip48)"><g clip-path="url(#clip49)"><text fill="#595959" font-family="Calibri,Calibri_MSFontService,sans-serif" font-weight="400" font-size="41" transform="matrix(1 0 0 1 1282.51 2792)">toothpaste</text></g></g><g clip-path="url(#clip50)"><g clip-path="url(#clip51)"><text fill="#595959" font-family="Calibri,Calibri_MSFontService,sans-serif" font-weight="400" font-size="41" transform="matrix(1 0 0 1 1339.23 2843)">25%</text></g></g><g clip-path="url(#clip52)"><path d="M528.5 2840.5 666.75 2840.5 666.75 2840.5 726 2840.5 765.5 2840.5 765.5 2859.83 778.867 2843.77 765.5 2888.83 765.5 2956.5 726 2956.5 666.75 2956.5 666.75 2956.5 528.5 2956.5 528.5 2888.83 528.5 2859.83 528.5 2859.83Z" stroke="#BFBFBF" stroke-width="3.4375" stroke-linejoin="round" stroke-miterlimit="10" fill="#FFFFFF" fill-rule="evenodd"/></g><g clip-path="url(#clip53)"><g clip-path="url(#clip54)"><text fill="#595959" font-family="Calibri,Calibri_MSFontService,sans-serif" font-weight="400" font-size="41" transform="matrix(1 0 0 1 543.4 2887)">bathingsoap</text></g></g><g clip-path="url(#clip55)"><g clip-path="url(#clip56)"><text fill="#595959" font-family="Calibri,Calibri_MSFontService,sans-serif" font-weight="400" font-size="41" transform="matrix(1 0 0 1 611.142 2938)">41%</text></g></g><g clip-path="url(#clip57)"><path d="M618.5 2328.5 726.417 2328.5 726.417 2328.5 772.667 2328.5 803.5 2328.5 803.5 2395.58 803.5 2395.58 803.5 2424.33 803.5 2443.5 772.667 2443.5 814.483 2452.02 726.417 2443.5 618.5 2443.5 618.5 2424.33 618.5 2395.58 618.5 2395.58Z" stroke="#BFBFBF" stroke-width="3.4375" stroke-linejoin="round" stroke-miterlimit="10" fill="#FFFFFF" fill-rule="evenodd"/></g><g clip-path="url(#clip58)"><g clip-path="url(#clip59)"><text fill="#595959" font-family="Calibri,Calibri_MSFontService,sans-serif" font-weight="400" font-size="41" transform="matrix(1 0 0 1 633.443 2375)">shampoo</text></g></g><g clip-path="url(#clip60)"><g clip-path="url(#clip61)"><text fill="#595959" font-family="Calibri,Calibri_MSFontService,sans-serif" font-weight="400" font-size="41" transform="matrix(1 0 0 1 686.082 2426)">9%</text></g></g><g clip-path="url(#clip62)"><path d="M753.5 2266.5 881.833 2266.5 881.833 2266.5 936.833 2266.5 973.5 2266.5 973.5 2334.17 973.5 2334.17 973.5 2363.17 973.5 2382.5 936.833 2382.5 937.143 2393.49 881.833 2382.5 753.5 2382.5 753.5 2363.17 753.5 2334.17 753.5 2334.17Z" stroke="#BFBFBF" stroke-width="3.4375" stroke-linejoin="round" stroke-miterlimit="10" fill="#FFFFFF" fill-rule="evenodd"/></g><g clip-path="url(#clip63)"><g clip-path="url(#clip64)"><text fill="#595959" font-family="Calibri,Calibri_MSFontService,sans-serif" font-weight="400" font-size="41" transform="matrix(1 0 0 1 767.832 2313)">moisturizer</text></g></g><g clip-path="url(#clip65)"><g clip-path="url(#clip66)"><text fill="#595959" font-family="Calibri,Calibri_MSFontService,sans-serif" font-weight="400" font-size="41" transform="matrix(1 0 0 1 838.072 2364)">7%</text></g></g><g clip-path="url(#clip67)"><text fill="#595959" font-family="Calibri,Calibri_MSFontService,sans-serif" font-weight="700" font-size="73" transform="matrix(1 0 0 1 560.038 2263)">Sales of Products in this Year</text></g><g clip-path="url(#clip68)"><rect x="287" y="3071" width="23" height="23" fill="url(#fill69)"/></g><g clip-path="url(#clip70)"><text fill="#595959" font-family="Calibri,Calibri_MSFontService,sans-serif" font-weight="400" font-size="41" transform="matrix(1 0 0 1 319.439 3094)">facecream</text></g><g clip-path="url(#clip71)"><rect x="528" y="3071" width="23.0001" height="23" fill="url(#fill72)"/></g><g clip-path="url(#clip73)"><text fill="#595959" font-family="Calibri,Calibri_MSFontService,sans-serif" font-weight="400" font-size="41" transform="matrix(1 0 0 1 560.457 3094)">facewash</text></g><g clip-path="url(#clip74)"><rect x="751" y="3071" width="23.0001" height="23" fill="url(#fill75)"/></g><g clip-path="url(#clip76)"><text fill="#595959" font-family="Calibri,Calibri_MSFontService,sans-serif" font-weight="400" font-size="41" transform="matrix(1 0 0 1 783.463 3094)">toothpaste</text></g><g clip-path="url(#clip77)"><rect x="1002" y="3071" width="21.9999" height="23" fill="url(#fill78)"/></g><g clip-path="url(#clip79)"><text fill="#595959" font-family="Calibri,Calibri_MSFontService,sans-serif" font-weight="400" font-size="41" transform="matrix(1 0 0 1 1033.83 3094)">bathingsoap</text></g><g clip-path="url(#clip80)"><rect x="1274" y="3071" width="23" height="23" fill="url(#fill81)"/></g><g clip-path="url(#clip82)"><text fill="#595959" font-family="Calibri,Calibri_MSFontService,sans-serif" font-weight="400" font-size="41" transform="matrix(1 0 0 1 1306.27 3094)">shampoo</text></g><g clip-path="url(#clip83)"><rect x="1495" y="3071" width="23" height="23" fill="url(#fill84)"/></g><g clip-path="url(#clip85)"><text fill="#595959" font-family="Calibri,Calibri_MSFontService,sans-serif" font-weight="400" font-size="41" transform="matrix(1 0 0 1 1527.6 3094)">moisturizer</text></g><rect x="170.5" y="2159.5" width="1650" height="990" stroke="#D9D9D9" stroke-width="3.4375" stroke-linejoin="round" stroke-miterlimit="10" fill="none"/></g></svg>